<?xml version="1.0" encoding="UTF-8"?>
<!DOCTYPE svg PUBLIC "-//W3C//DTD SVG 1.1//EN" "http://www.w3.org/Graphics/SVG/1.1/DTD/svg11.dtd">
<!-- Creator: CorelDRAW -->
<svg xmlns="http://www.w3.org/2000/svg" xml:space="preserve" width="1311px" height="1281px" version="1.1" style="shape-rendering:geometricPrecision; text-rendering:geometricPrecision; image-rendering:optimizeQuality; fill-rule:evenodd; clip-rule:evenodd"
viewBox="0 0 1312.935 1283.405"
 xmlns:xlink="http://www.w3.org/1999/xlink"
 xmlns:xodm="http://www.corel.com/coreldraw/odm/2003">
 <defs>
  <style type="text/css">
   <![CDATA[
    .fil1 {fill:#C59E53;fill-rule:nonzero}
    .fil0 {fill:white;fill-rule:nonzero}
   ]]>
  </style>
 </defs>
 <g id="Layer_x0020_1">
  <metadata id="CorelCorpID_0Corel-Layer"/>
  <g id="_2264961975216">
   <polygon class="fil0" points="240.628,310.392 272.455,160.654 425.522,162.944 443.065,140.258 247.821,127.098 216.934,321.37 "/>
   <polygon class="fil0" points="1071.533,310.392 1210.434,374.741 1174.141,523.461 1193.646,547.182 1251.229,356.12 1065.373,281.413 "/>
   <polygon class="fil0" points="656.081,110.321 792.995,41.844 886.639,162.944 917.074,162.489 804.67,0.002 632.018,98.286 "/>
   <polygon class="fil0" points="138.019,759.948 40.794,641.704 138.019,523.46 131.663,497.411 -0.001,641.704 131.315,787.421 "/>
   <polygon class="fil0" points="1174.142,759.949 1210.435,908.668 1071.534,973.017 1065.536,1001.233 1251.228,927.29 1193.646,736.228 "/>
   <polygon class="fil0" points="425.521,1120.465 272.456,1122.755 240.628,973.017 215.79,961.51 247.82,1156.311 443.352,1143.524 "/>
   <polygon class="fil0" points="886.639,1120.465 792.995,1241.565 656.08,1173.088 631.251,1185.506 804.67,1283.407 917.265,1120.922 "/>
  </g>
  <polygon class="fil1" points="656.081,110.321 792.995,41.845 886.639,162.944 1039.706,160.654 1071.534,310.392 1210.435,374.742 1174.142,523.461 1271.367,641.705 1174.142,759.949 1210.435,908.667 1071.533,973.017 1039.706,1122.755 886.639,1120.465 792.994,1241.565 656.081,1173.088 519.166,1241.565 425.522,1120.465 272.456,1122.754 240.627,973.016 101.726,908.667 138.019,759.949 40.794,641.704 138.019,523.461 101.726,374.742 240.627,310.392 272.456,160.654 425.522,162.944 519.166,41.844 "/>
  <g id="_2264961967824">
   <polygon class="fil0" points="646.025,794.423 648.127,757.041 594.234,714.146 571.973,675.932 562.378,675.515 515.206,793.426 538.855,860.203 "/>
   <polygon class="fil0" points="868.56,583.388 866.339,457.551 755.374,350.197 656.08,425.635 556.787,350.197 445.823,457.551 443.601,583.388 389.653,667.605 490.068,751.046 568.576,608.993 570.602,586.946 503.65,561.083 494.422,503.412 585.245,542.034 583.246,611.109 564.797,662.652 620.138,661.601 656.08,682.907 692.023,661.601 747.364,662.652 728.914,611.109 726.916,542.034 817.738,503.412 808.51,561.083 741.559,586.946 743.585,608.993 822.093,751.046 922.507,667.605 "/>
   <polygon class="fil0" points="581.761,898.6 656.08,935.231 730.4,898.6 656.08,822.693 "/>
   <polygon class="fil0" points="740.188,675.932 717.926,714.146 664.034,757.041 666.136,794.423 773.306,860.202 796.955,793.425 749.783,675.515 "/>
   <polygon class="fil0" points="978.991,283.452 978.984,283.452 978.981,283.443 800.266,297.61 800.308,297.613 800.276,297.615 800.345,297.614 966.19,304.927 968.357,322.329 989.918,336.324 990.009,336.387 "/>
   <polygon class="fil0" points="376.866,889.15 376.834,889.135 230.555,810.567 236.152,793.946 222.774,771.942 222.746,771.893 209.705,824.367 209.709,824.368 209.708,824.373 376.869,889.154 376.851,889.145 "/>
   <polygon class="fil0" points="675.454,1014.283 675.408,1014.307 522.794,1079.678 513.291,1064.941 487.77,1061.684 487.687,1061.67 520.581,1104.582 520.586,1104.58 520.591,1104.586 675.461,1014.283 675.433,1014.295 "/>
   <polygon class="fil0" points="959.453,858.857 959.439,858.924 915.403,1018.982 897.955,1017.223 879.515,1035.129 879.431,1035.205 933.491,1036.242 933.492,1036.234 933.503,1036.234 959.46,858.848 959.449,858.888 "/>
   <polygon class="fil0" points="601.104,198.427 625.582,190.265 577.325,165.875 476.97,314.429 586.147,189.271 "/>
   <polygon class="fil0" points="258.751,414.293 275.235,408.308 284.115,384.081 234.959,406.603 288.532,577.685 "/>
   <polygon class="fil0" points="1137.506,670.788 1015.003,539.898 1015.034,539.939 1015.007,539.911 1015.061,539.976 1112.733,674.183 1100.479,686.729 1102.978,712.283 1102.987,712.425 1137.505,670.807 1137.499,670.799 "/>
  </g>
  <g id="_2264967588096">
   <polygon class="fil0" points="1065.66,128.183 583.893,212.4 567.612,227.937 1039.781,161.053 1080.495,375.965 "/>
   <polygon class="fil0" points="509.962,1.307 275.429,430.476 277.425,452.892 519.525,42.034 712.934,144.197 "/>
   <polygon class="fil0" points="272.375,820.032 102.094,374.588 302.557,287.068 64.29,356.671 253.605,807.616 "/>
   <polygon class="fil0" points="556.27,1052.884 101.837,908.288 158.397,696.992 64.26,926.674 534.86,1059.817 "/>
   <polygon class="fil0" points="915.325,976.104 518.943,1241.243 389.008,1065.283 509.889,1282.085 907.397,997.166 "/>
   <polygon class="fil0" points="1079.161,647.51 1039.318,1122.726 820.735,1114.604 1065.605,1155.269 1090.685,666.84 "/>
   <polygon class="fil0" points="1312.936,641.722 946.702,317.587 924.404,314.545 1271.103,641.984 1128.471,807.817 "/>
  </g>
 </g>
</svg>
