<?xml version="1.0" encoding="UTF-8"?>
<!DOCTYPE svg PUBLIC "-//W3C//DTD SVG 1.1//EN" "http://www.w3.org/Graphics/SVG/1.1/DTD/svg11.dtd">
<!-- Creator: CorelDRAW -->
<svg xmlns="http://www.w3.org/2000/svg" xml:space="preserve" width="267px" height="200px" version="1.1" style="shape-rendering:geometricPrecision; text-rendering:geometricPrecision; image-rendering:optimizeQuality; fill-rule:evenodd; clip-rule:evenodd"
viewBox="0 0 134.457 100.717"
 xmlns:xlink="http://www.w3.org/1999/xlink"
 xmlns:xodm="http://www.corel.com/coreldraw/odm/2003">
 <defs>
  <style type="text/css">
   <![CDATA[
    .fil1 {fill:#666666}
    .fil0 {fill:#E6E6E6}
   ]]>
  </style>
 </defs>
 <g id="Layer_x0020_1">
  <metadata id="CorelCorpID_0Corel-Layer"/>
  <rect class="fil0" width="134.457" height="100.717"/>
  <path class="fil1" d="M66.999 12.978c4.336,0 7.851,3.515 7.851,7.851 0,4.336 -3.515,7.85 -7.851,7.85 -4.336,0 -7.851,-3.514 -7.851,-7.85 0,-4.336 3.515,-7.851 7.851,-7.851zm-27.745 18.776c-2.81,0 -2.884,5.017 -0.089,5.49l18.735 3.17 -0.09 43.798c-0.01,4.553 7.998,4.71 7.987,0.004l-0.048 -20.295c-0.004,-1.763 2.895,-1.793 2.899,0.046l0.043 20.247c0.01,4.693 8.094,4.706 8.075,0.001l-0.179 -43.536 18.246 -3.344c3.154,-0.578 3.503,-5.579 0.134,-5.579l-55.713 -0.002z"/>
 </g>
</svg>
