<?xml version="1.0" encoding="UTF-8"?>
<!DOCTYPE svg PUBLIC "-//W3C//DTD SVG 1.1//EN" "http://www.w3.org/Graphics/SVG/1.1/DTD/svg11.dtd">
<!-- Creator: CorelDRAW -->
<svg xmlns="http://www.w3.org/2000/svg" xml:space="preserve" width="200px" height="200px" version="1.1" style="shape-rendering:geometricPrecision; text-rendering:geometricPrecision; image-rendering:optimizeQuality; fill-rule:evenodd; clip-rule:evenodd"
viewBox="0 0 55.68 55.592"
 xmlns:xlink="http://www.w3.org/1999/xlink"
 xmlns:xodm="http://www.corel.com/coreldraw/odm/2003">
 <defs>
  <style type="text/css">
   <![CDATA[
    .str0 {stroke:#666666;stroke-width:0.278;stroke-miterlimit:2.61313}
    .fil0 {fill:none}
    .fil1 {fill:white}
    .fil2 {fill:#666666;fill-rule:nonzero}
   ]]>
  </style>
 </defs>
 <g id="Layer_x0020_1">
  <metadata id="CorelCorpID_0Corel-Layer"/>
  <rect class="fil0" width="55.592" height="55.592"/>
  <path class="fil1 str0" d="M45.091 55.402l10.45 0 0 -10.986 -7.797 0c-1.459,0 -2.653,1.194 -2.653,2.654l0 8.332z"/>
  <path class="fil2" d="M52.223 47.574c-0.031,-0.032 -0.074,-0.049 -0.118,-0.049 -0.045,0 -0.087,0.017 -0.119,0.049l-0.552 0.552 1.242 1.242 0.552 -0.552c0.032,-0.031 0.049,-0.074 0.049,-0.118 0,-0.045 -0.017,-0.088 -0.049,-0.119l-1.005 -1.005zm0.217 2.03l-1.242 -1.242 -2.178 2.178 0.069 0c0.093,0 0.168,0.075 0.168,0.168l0 0.167 0.167 0c0.093,0 0.168,0.075 0.168,0.168l0 0.167 0.167 0c0.093,0 0.168,0.075 0.168,0.168l0 0.167 0.167 0c0.093,0 0.168,0.075 0.168,0.168l0 0.069 2.178 -2.178zm-2.503 2.503c-0.006,-0.019 -0.01,-0.039 -0.01,-0.059l0 -0.168 -0.168 0c-0.092,0 -0.167,-0.075 -0.167,-0.167l0 -0.168 -0.168 0c-0.092,0 -0.167,-0.075 -0.167,-0.167l0 -0.168 -0.168 0c-0.092,0 -0.167,-0.075 -0.167,-0.167l0 -0.168 -0.168 0c-0.02,0 -0.04,-0.004 -0.058,-0.011l-0.06 0.06c-0.016,0.016 -0.029,0.035 -0.037,0.056l-0.67 1.675c-0.008,0.02 -0.012,0.042 -0.012,0.063 0,0.092 0.075,0.167 0.167,0.167 0.021,0 0.043,-0.004 0.063,-0.012l1.675 -0.67c0.021,-0.008 0.04,-0.021 0.056,-0.037l0.059 -0.059z"/>
 </g>
</svg>
